<?xml version="1.0" standalone="no"?>
<!DOCTYPE svg PUBLIC "-//W3C//DTD SVG 20010904//EN"
 "http://www.w3.org/TR/2001/REC-SVG-20010904/DTD/svg10.dtd">
<svg version="1.0" xmlns="http://www.w3.org/2000/svg"
 width="700.000000pt" height="700.000000pt" viewBox="0 0 700.000000 700.000000"
 preserveAspectRatio="xMidYMid meet">
<metadata>
Created by potrace 1.14, written by Peter Selinger 2001-2017
</metadata>
<g transform="translate(0.000000,700.000000) scale(0.100000,-0.100000)"
fill="#000000" stroke="none">
<path d="M3280 6994 c-19 -2 -84 -9 -145 -14 -636 -62 -1266 -316 -1795 -726
-148 -114 -480 -446 -594 -594 -411 -530 -654 -1132 -728 -1795 -17 -155 -17
-575 0 -730 75 -673 332 -1300 748 -1820 173 -217 468 -497 690 -657 490 -352
1052 -566 1679 -640 142 -17 586 -17 730 0 682 79 1268 318 1802 734 138 107
389 351 512 498 452 538 717 1162 803 1885 17 144 17 586 0 730 -86 723 -351
1346 -803 1885 -127 151 -376 393 -519 504 -524 406 -1092 640 -1750 722 -117
15 -552 27 -630 18z m1488 -1333 l1232 -713 0 -674 c0 -371 -4 -674 -9 -674
-6 0 -2192 1262 -2471 1427 -25 14 -41 6 -624 -332 -328 -190 -604 -349 -612
-352 -12 -4 -14 87 -12 672 l3 677 610 354 c547 317 612 352 630 340 11 -6
575 -333 1253 -725z m-2608 -1488 l1 -1448 605 -350 c333 -192 607 -352 610
-356 5 -8 -1155 -681 -1166 -677 -5 2 -280 161 -614 353 l-605 350 2 1453 2
1453 575 334 c316 184 578 334 583 334 4 1 7 -650 7 -1446z m3260 -371 c300
-173 553 -322 563 -330 16 -14 17 -58 15 -721 l-3 -705 -80 -46 c-44 -26 -606
-351 -1249 -724 -999 -579 -1172 -676 -1190 -668 -60 29 -1135 658 -1138 666
-2 5 557 333 1242 730 l1245 721 3 708 2 708 23 -12 c12 -7 267 -154 567 -327z"/>
</g>
</svg>
